<svg xmlns="http://www.w3.org/2000/svg" viewBox="0 0 118.23 118.23"><defs><style>.cls-1{fill:#222;}</style></defs><title>logoРесурс 11800</title><g id="Слой_2" data-name="Слой 2"><g id="Слой_1-2" data-name="Слой 1"><path class="cls-1" d="M61.51,32.32l-1,.9a2.12,2.12,0,0,1,.16-1,1.2,1.2,0,0,1,.71-.65,2.11,2.11,0,0,1,.73-.15h.19A7.33,7.33,0,0,1,61.51,32.32ZM79.68,44.86c.25,1.86.43,3.09.54,3.7.23-.14.6-.39,1.2-.81l.28-.21c.89-.66,1.29-1,1.46-1.11-.18-.76-1.38-3.74-1.52-4L81,40.93c-.39-.92-1-2.29-1.08-2.51a8.45,8.45,0,0,0-.61-.64,5,5,0,0,0-.81.56c.12.86,1,5.47,1.11,6C79.62,44.39,79.64,44.58,79.68,44.86Zm-30-6.18a.7.7,0,0,0,.38.1,1.34,1.34,0,0,0,.41-.08,1.84,1.84,0,0,0,.64-.39,2.55,2.55,0,0,0,.29-.37,13.15,13.15,0,0,1-.67-1.44,3.84,3.84,0,0,1-.11-.4c0-.1,0-.22-.06-.34h-.2a.92.92,0,0,0-.17,0,1.73,1.73,0,0,0-1,.88,1.54,1.54,0,0,0-.09,1.22A1.41,1.41,0,0,0,49.73,38.68ZM73.29,30a1,1,0,0,0,.65-.6,1.2,1.2,0,0,0,0-.83,2.21,2.21,0,0,0-.54-.92.52.52,0,0,0-.37-.15.66.66,0,0,0-.23,0,1.77,1.77,0,0,0-.65.41,4.18,4.18,0,0,0-.4.56c.23.52.44,1.07.66,1.68A3.07,3.07,0,0,0,73.29,30Zm-32,23.35c.42-.53,2.09-2.81,2.39-3.31,0-.29-.11-.67-.15-.84a6.43,6.43,0,0,0-1.86-.44A13.92,13.92,0,0,0,40.11,50c.65,2.22.91,3,1,3.31Zm11.18-3.46c.05.18.72,2.36.83,2.58s1.22,2.13,1.52,2.58c.2,0,.72,0,1.75,0h1A24.75,24.75,0,0,0,60,54.18c.16-.28.81-1.59.94-1.91-.06-.36-.59-2.86-.67-3.1S59,45.26,58.75,44.61a4.69,4.69,0,0,0-.93-.35c-.3.08-1.77.79-2.33,1.07l-.51.24c-.53.23-2.07.92-2.52,1.17C52.43,47.36,52.47,49.62,52.51,49.88Zm56.12,9.24A49.51,49.51,0,1,1,59.12,9.61,49.51,49.51,0,0,1,108.63,59.12ZM81.24,21.66c0,.1.38,1.09.38,1.09L82,23.83c.1.28.26.69.46,1.24s.37.95.47,1.22c0,0,.13.42.13.42l.07.2a.46.46,0,0,0,.29.29.63.63,0,0,0,.19,0,.62.62,0,0,0,.23,0,.56.56,0,0,0,.33-.31,3.86,3.86,0,0,0,1.3-.24A2.76,2.76,0,0,0,87,25.33a2.31,2.31,0,0,0,.13-1.87,2.28,2.28,0,0,0-1.17-1.35,2.13,2.13,0,0,0-1-.24,2.68,2.68,0,0,0-.93.18,2.85,2.85,0,0,0-.66.39,5.08,5.08,0,0,0-.49.46l-.26-.77-.3-.88a.4.4,0,0,1,0-.13.49.49,0,0,0,0-.19.43.43,0,0,0-.41-.34.63.63,0,0,0-.22.05.61.61,0,0,0-.41.49A1,1,0,0,0,81.24,21.66ZM76.1,25.45a8.62,8.62,0,0,0,.31,1.3,11.07,11.07,0,0,0,.85,1.79,1.13,1.13,0,0,0,.86.61,1.27,1.27,0,0,0,.28,0,2.29,2.29,0,0,0,.85-.17,3.81,3.81,0,0,0,1.16-.67.55.55,0,0,0,.39.18.69.69,0,0,0,.24-.05.62.62,0,0,0,.35-.28.48.48,0,0,0,0-.45c0-.06-.06-.14-.11-.27a1.16,1.16,0,0,1-.11-.24l-.3-.84-.31-.83L80.17,24a.47.47,0,0,0-.3-.31.52.52,0,0,0-.21,0,.79.79,0,0,0-.25,0,.56.56,0,0,0-.4.68,13,13,0,0,0,.44,1.52l.28.75.25.69a5.08,5.08,0,0,1-1.11.57.83.83,0,0,1-.26.06h-.25A3.39,3.39,0,0,1,78,27.4a8.8,8.8,0,0,1-.44-1.08,3.88,3.88,0,0,1-.15-.6,3.06,3.06,0,0,0-.14-.62.48.48,0,0,0-.31-.31.65.65,0,0,0-.2,0,.8.8,0,0,0-.26.05A.57.57,0,0,0,76.1,25.45Zm-.58,11.17a11.19,11.19,0,0,0-.58,1.24,8,8,0,0,0,.38,2c.1.43.2.86.27,1.2l.52,2.57c.21,1,.42,2,.63,3L76.91,48c.18,1.34.45,3.37.45,3.57a18.82,18.82,0,0,1-1.15,3.24,3.55,3.55,0,0,0-.14.34c-.12.42.35.7.69.91l.14.1H77c.2,0,.2,0,1.6-1.54l.17-.19c.15-.15,1.59-2.41,1.77-2.7s2.22-2,2.41-2.1,2.12-1.15,2.39-1.26l.67-.14,1.2-.25c.4,0,.68-.66.66-.95s-.34-.48-.84-.71l-.14-.07c-.17-.08-.82-.33-1.24-.48l-.62-1.46L83,39l-.7-1.5a12.67,12.67,0,0,0-1.18-2.36.62.62,0,0,0-.46-.12c-.29,0-.84,0-1.13.05h-.2a17.68,17.68,0,0,0-2.07.54s-.21.08-.4.15c-.89.34-1.11.44-1.21.65ZM70.15,28l.35.76c.2.45.41,1,.62,1.52l.55,1.57.54,1.56a.54.54,0,0,0,.31.32.65.65,0,0,0,.2,0,.79.79,0,0,0,.25,0,.61.61,0,0,0,.35-.29.52.52,0,0,0,0-.44l-.6-1.71a5.62,5.62,0,0,0,.9-.24A2.27,2.27,0,0,0,75,29.83a2.24,2.24,0,0,0,0-1.69,3.12,3.12,0,0,0-.91-1.42,1.56,1.56,0,0,0-1-.37,2.29,2.29,0,0,0-.74.14,2.76,2.76,0,0,0-.68.4,3.74,3.74,0,0,0-.47.43v0s0-.06,0-.08a.5.5,0,0,0-.29-.3.45.45,0,0,0-.2,0,.68.68,0,0,0-.23.05.6.6,0,0,0-.4.47A1.07,1.07,0,0,0,70.15,28Zm-.54,11.13a22.47,22.47,0,0,0-3.67.87s-3.69,2.79-3.88,3.09.1,1.08.11,1.11a.59.59,0,0,0,.51.36h0c.24,0,3.54-1.59,3.58-1.6a10.28,10.28,0,0,1,1.77-.6l.06,0c-.21.61-1.26,3.3-1.41,3.55-1.5,2-1.54,2.26-1.55,2.37a2.19,2.19,0,0,0,.32,1,.49.49,0,0,0,.42.16c.26,0,.9,0,1.59-.09l1.44-.1c.41.11,1.71.48,2.06.62a10.53,10.53,0,0,1,.38,1.83v.06A21.94,21.94,0,0,1,71,54.52c-.09.26-1.62,3.07-1.78,3.32s-.72.78-1.86,1.93l-.2.2-.48.44c-.91.8-1.07,1-1,1.25s.48.57,1,.75l.09,0,.07,0h.08a45,45,0,0,0,4.33-2.39c.2-.22,1.95-2.68,2.14-3,.06-.1.48-.72.86-1.27.93-1.37,1.33-2,1.41-2.16a36.56,36.56,0,0,0,.28-4.49A9.56,9.56,0,0,0,74.79,47a17.65,17.65,0,0,0-3.09-1,2.75,2.75,0,0,0-.42,0c-.38,0-1.21,0-1.79.06.25-.66.7-1.77.88-2.19.06-.11.54-1.65.57-1.73a11.69,11.69,0,0,0,0-1.86c-.08-.33-1-1-1.18-1Zm5.45,29.35-1.34-.7.43,1.5c.48-.06,1-.11,1.43-.13Zm-3.22,1.25c.64-.16,1.27-.29,1.88-.39a6.72,6.72,0,0,0-.52-1.68c-.44-.61-.51-.2-.89-.47a3.21,3.21,0,0,0-1-.52,4,4,0,0,1,.55,1.83C71.91,68.85,71.81,69.2,71.84,69.72Zm-2.77-1.5a3.3,3.3,0,0,1,1.31,1.93l1-.3-.12-.41c-.19-.37-.16-1.24-.42-1.56a9.85,9.85,0,0,0-1.22-1.35c-.33-.22-.75.66-1.1.5a1.83,1.83,0,0,0-1.22-.26,17.21,17.21,0,0,1,2,3.76l.71-.26a6.13,6.13,0,0,0-.4-1.07Zm-6.86,1.44a7.07,7.07,0,0,1,2.67,3l.41-.24a15.86,15.86,0,0,0-1.4-2.09,16.13,16.13,0,0,0-1.91-2c-.45-.14-.65,1.17-1.4,1.67a10.52,10.52,0,0,1,2.85,3.61l.85-.56A7.58,7.58,0,0,0,62.21,69.66Zm-3.9,4.22a6.91,6.91,0,0,1,1.81,2.43l.73-.67a8.2,8.2,0,0,0-2.5-2.88c-.77.53-1.45,2.29-2,3.68a7.74,7.74,0,0,0,1.91,1.92c.21-.26.44-.54.68-.81-.3-.59-.64-1.23-1-2.08.38.65.79,1.28,1.16,1.9.25-.27.5-.55.78-.82A19.72,19.72,0,0,0,58.31,73.88Zm-2.69,4.33a2.78,2.78,0,0,1,1.68,1.47,11.15,11.15,0,0,1,.67-1A2.51,2.51,0,0,0,55.62,78.21Zm5.54-2.84c.58-.5,1.21-1,1.88-1.47-1.06-2.06-1.68-2.28-2.78-3.58-.54-.09-1.51,1.45-1.7,2.11A5.28,5.28,0,0,1,61.16,75.37Zm4.28-3c.35-.21.72-.41,1.08-.6-.26-.51-.53-1-.68-1.25a9.7,9.7,0,0,0-1.66-2.3c-.26-.14-.4,0-.61-.07s-.8-.29-.78-.27A23.27,23.27,0,0,1,65.44,72.37Zm1.21-1.49a8.45,8.45,0,0,0-.13-1.2,11.43,11.43,0,0,1,.57,1.81c.44-.21.87-.4,1.3-.59-.43-1.52-.46-2.82-1.38-4.17-.5-.18-1.49,1.22-2.16,1.4A12.41,12.41,0,0,1,66.65,70.88Zm-1.1-39.53a.41.41,0,0,0,.4.3.85.85,0,0,0,.26,0c1-.39,1.77-.69,2.19-.89s.37-.46.32-.61a.41.41,0,0,0-.41-.29.83.83,0,0,0-.28.06c-.24.09-.6.23-1.07.43l-1,.43C65.47,30.9,65.5,31.19,65.55,31.35Zm-5.93,2.77a1.77,1.77,0,0,0,1.27,1.19,2.48,2.48,0,0,0,.61.07,3.57,3.57,0,0,0,1.29-.26,4.36,4.36,0,0,0,1.3-.79c.51-.45.7-.86.58-1.2a.47.47,0,0,0-.3-.28.64.64,0,0,0-.2,0,.52.52,0,0,0-.21,0,.56.56,0,0,0-.34.42c0,.1-.14.27-.51.52a3.17,3.17,0,0,1-.66.36,2.37,2.37,0,0,1-.82.16h-.07a1.59,1.59,0,0,1-.58-.14L62.32,33a8.14,8.14,0,0,0,.81-.81,1.09,1.09,0,0,0,.28-1,1,1,0,0,0-1-.69h-.17a3.48,3.48,0,0,0-1.2.25,2.33,2.33,0,0,0-1.46,1.46A2.9,2.9,0,0,0,59.62,34.12Zm-2.2,7.51c-.39.06-2.86,1.18-2.89,1.2s-.71.29-1.21.48a16,16,0,0,0-2.12.88s-1.81,1.53-1.84,2.13c0,.43.16,3.59.19,3.89.07.5,1.1,3.86,1.25,4.15a42.46,42.46,0,0,0,2.68,3.49,10.19,10.19,0,0,0,2.76.36l.26,0s4.62-1.49,5-1.76A9.53,9.53,0,0,0,62.7,54.6a15.3,15.3,0,0,0,.56-2.53c0-.26-.69-3.35-.83-3.9l-.22-.87c-.56-2.16-.66-2.53-.7-2.63a21.67,21.67,0,0,0-1.61-2.59,6.09,6.09,0,0,0-2.31-.46Zm-4.13-7.21a.47.47,0,0,0,.46.35.89.89,0,0,0,.3-.06l.58-.25.35,1,.39,1.06a6.5,6.5,0,0,1,.3,1.1.21.21,0,0,0,0,.12.45.45,0,0,0,.3.3.63.63,0,0,0,.19,0,.8.8,0,0,0,.26-.05.56.56,0,0,0,.39-.62,5,5,0,0,0-.32-1.21c-.05-.16-.15-.41-.27-.73l-.28-.7-.24-.8c.49-.22.78-.34.9-.38A2.27,2.27,0,0,0,57,33.4a.51.51,0,0,0,.29-.64.48.48,0,0,0-.49-.32,1.56,1.56,0,0,0-.54.12l-.85.36,0-.09c-.21-.85,0-1.36.67-1.61s.6-.58.54-.77a.48.48,0,0,0-.49-.32,1.32,1.32,0,0,0-.47.1,2.22,2.22,0,0,0-1.37,1.12,2.48,2.48,0,0,0-.06,1.55c0,.21.07.38.11.51l-.32.13C53.26,33.84,53.2,34.18,53.29,34.42ZM48,38.29a2.38,2.38,0,0,0,1.06,1.39,1.8,1.8,0,0,0,.75.16,3.18,3.18,0,0,0,1.09-.23,2.34,2.34,0,0,0,.54-.32,5.38,5.38,0,0,0,.6-.54,1.62,1.62,0,0,0,.34.13,1.18,1.18,0,0,0,.35.07h.11a.64.64,0,0,0,.33-.27.49.49,0,0,0,.05-.42v0l-.09-.09L53,38a5.9,5.9,0,0,1-.52-.56,2.78,2.78,0,0,1-.33-.71c-.13-.35-.22-.64-.28-.87a2.21,2.21,0,0,1-.1-.45.33.33,0,0,0,0-.29c-.09-.26-.38-.39-.93-.39h0a3.09,3.09,0,0,0-1,.16,3,3,0,0,0-1.64,1.42A2.42,2.42,0,0,0,48,38.29ZM42.7,40.53a1.81,1.81,0,0,0,1.22,1.17,2.17,2.17,0,0,0,.72.11,3.08,3.08,0,0,0,1.08-.21,3.26,3.26,0,0,0,1-.63c.47-.41.64-.71.54-1a.49.49,0,0,0-.28-.3.48.48,0,0,0-.23-.05.52.52,0,0,0-.21,0s-.11.06-.22.16l-.43.44a1.59,1.59,0,0,1-.49.31,1.79,1.79,0,0,1-.65.13,1.34,1.34,0,0,1-.35,0,.84.84,0,0,1-.6-.57,2.16,2.16,0,0,1,0-1.21c.11-.53.31-.86.57-1a2,2,0,0,1,.69-.16h.16l.24.07.13,0a.65.65,0,0,0,.2,0,.57.57,0,0,0,.32-.29.54.54,0,0,0,0-.41c-.1-.27-.39-.4-.91-.4H45.1A3.65,3.65,0,0,0,44,37a2.18,2.18,0,0,0-1.28,1.59A3.2,3.2,0,0,0,42.7,40.53Zm-6.8,8.13L36,49a18.58,18.58,0,0,0,.52,2.41l1.29,5.92c.29,1.84.62,3.92.86,6a19.38,19.38,0,0,1-.33,3.43c-.18,1.1-.21,1.3.09,1.47l.39.21h.1c.2,0,.21,0,2.24-2,.92-.66,1.86-1.29,2.77-1.9s2-1.33,2.95-2l1.3-.82c2.45-1.54,2.93-1.89,3-2.22a18.4,18.4,0,0,0-.66-4.56,7.71,7.71,0,0,0-2.44-2H48c-.45,0-2.22.2-3.28.35a12.54,12.54,0,0,0,1.64-2.46,8.75,8.75,0,0,0-.49-3.13l-.05-.09-.09-.06a11.82,11.82,0,0,0-2.53-1.13l-.36-.12-.09-.06h-.22a8.65,8.65,0,0,0-2.63.42c-.17.14-.41.29-.66.46s-.84.56-1.23.88a10.29,10.29,0,0,1-1.74.63h-.06l.08-.19c0-.12.08-.31.16-.67a13.65,13.65,0,0,1,.38-1.53,18.09,18.09,0,0,0,.89-3.76,15,15,0,0,1,.6-2.52l.05-.23-.12-.16c-.1-.14-.78-.74-1.09-.74h-.08l-.07,0L32,41c-.21.06-3.26.72-6,1.29l-3.72.8-.43.08c-5.65,1-5.94,1.14-6.1,1.44-.06.11-.17.32,1.2,3.79.14.36,2.34,6.19,2.43,6.54s1.65,7.2,1.69,7.65a6.37,6.37,0,0,0,.07.88c.12,1.25.37,3.85.34,5.22a14.45,14.45,0,0,1-1,2.63c-.41.91-.5,1.1-.21,1.34.1.07.3.18.6.35l.31.17.1.05h.1c.2,0,.37-.09,1.64-1.05l.52-.39.73-.54A34.07,34.07,0,0,1,27.49,69a15.12,15.12,0,0,1,1.85-.82c1-.38,1.22-.47,1.29-.76a3.21,3.21,0,0,0-.25-1.34c-.09-.32-.19-.65-.23-.89l0-.09c-.29-.7-.74-1.81-1.2-3-.58-1.45-1.19-3-1.55-3.84-.52-1.29-1.09-2.47-1.64-3.6S24.59,52.32,24.05,51a26,26,0,0,1-1.12-4c.65-.24,2.76-.81,3.84-1.09l1.32-.36c.34-.1,4.91-.63,5.78-.65a6.27,6.27,0,0,1,.59.42c.11.42.42,2.46.42,2.72v.21l.12.12A1.61,1.61,0,0,0,35.9,48.66ZM63.46,96.53c.6-1.34,1.73-2.52,2.26-4-.69,0-1.1,0-1.76-.1a9.89,9.89,0,0,1-2.14,3.29,22.49,22.49,0,0,0,2-3.31c-.28,0-.56-.06-.83-.09-.95,1.34-1.85,3.13-4.24,3.62a1.79,1.79,0,0,0,1.55.52c.45.33,1.09.15,1.8,0C62.55,96.66,62.87,96.5,63.46,96.53Zm-3.8-1.25c.79-.38,2-2.13,2.86-3.07-.54-.11-1.08-.23-1.58-.36L59.25,93.7C59.12,94,59.35,95.42,59.66,95.28Zm7.5.22a27.07,27.07,0,0,0,1.66-3h-.55A5.8,5.8,0,0,1,67,95a7.67,7.67,0,0,0,1-2.5H67a11.08,11.08,0,0,1-1.6,2.77,13,13,0,0,0,1.32-2.77h-.59a28.65,28.65,0,0,1-2.49,4.17C65,96.58,65.94,95.67,67.16,95.5Zm2.45-3.1-.44,0L67.5,95.89C68.49,95.64,69.2,93.6,69.61,92.4ZM95.2,74.1c-5-2.53-7.8-4.19-13.2-5.38-2-.31-3.72.53-3.83,2.11s.24,3.79.23,5.22c0,.62-1.3.58-1.36.37-.54-2.16-2.8-4.31-4.17-5.27,2,3.63,2.19,6.29,1.81,7.07s-1.21.56-1.26.38a13.14,13.14,0,0,0-4.55-6.11c.89,1.7,2.56,5.4,1.92,7-.31.76-1.55,1.3-1.75.52-.49-1.9-3.14-4.51-4.34-4.81a9.45,9.45,0,0,1,2.14,5.32c0,1.44-1.4,2.12-1.76,1.46a8.58,8.58,0,0,0-3.33-3.3c1,1.62,1.65,2.7,1.65,4.08,0,1-1.13,1.85-1.57,1.26a4.52,4.52,0,0,0-2.61-2.46,4.14,4.14,0,0,1,.89,3.4c-.06.76-.88,1.28-1.39.93s-1-1.82-2.2-2.14c.83,1.09.75,2.78-.84,3-2.23.3-3.12-1.18-4-1.32L39.86,83.6l6.43,2-6.93-1.55L36,84.8l3.38,1.44,8.58,1.48L40.05,87l3,1.17-1.88.13,2.72.6a4.78,4.78,0,0,1-1.61.12l1.21,1.35c1.51-.37,3.59-1.18,5.14-1.1l2.77.15a25.14,25.14,0,0,1-3.36,1l-4.27.53a10,10,0,0,1,.63,2,17.78,17.78,0,0,1,3.81-1.74c1.85-.55,6-1.5,4.8-.93a46.38,46.38,0,0,1-8.38,3.53,9.68,9.68,0,0,1,.13,2.72,49.87,49.87,0,0,0,4.89-2.58,18.49,18.49,0,0,1-4.81,3.32l-.13,1,3.15-2.26-3.43,3.14a8.14,8.14,0,0,1-.86,3.1,32.21,32.21,0,0,0,4-2.9,19.41,19.41,0,0,1-2.92,3.08l3.45-1.65,4.49-6.42,3-3.38c.1-.22.85-.52,1.1-.31-.06-.77-.08-1.51.41-1.89.7-.54,1.56.4,1.21,2.06,1.14-.7.45-2.78,1.84-3,1-.15,1.67.8,1,3.05,1.57-1.31,1.3-3.11,1.72-3.93.25-.49,1.1-.84,1.5-.38s.85,1.73-.11,4.47c3-2.49,1.59-5.84,2.56-6.27,1.81-.82,2,4.51,1,6.48,2.41-1.39,2.72-6.4,2.65-7.35A.86.86,0,0,1,72,83.24c.9,1.31.61,5.64.11,7.91,1.6-1.47,2.51-6.31,2.19-8.69,0-.84,1.2-1.53,1.76-.77.91,1.22.81,5.8-.22,8.32a10.7,10.7,0,0,0,2.47-8.85c-.19-1.39,1.19-.45,1.27-.29a25.71,25.71,0,0,0,5.1,6.48C87.83,87,97.91,75.47,95.2,74.1ZM93.94,29.56s-1.36.21-1.47.74c0,.22,0,1.24,0,1.47s1.13,4.11,1.14,4.14.59,2.2.71,2.68c-.13.22-.54.75-.68.94l-.16.22c-.1.15-1.16,1.47-1.37,1.66-.06.06-.18.2-.7.85l-.11.13c-.33-1.39-1-4.44-1-4.79s-.71-3.16-.93-3.84c0-.07,0-.39-.06-.65-.1-1.31-.13-1.62-.52-1.7a3.88,3.88,0,0,0-.41,0,1,1,0,0,0-.39.06c-.11,0-.19.07-2,1.89l0,0a4.63,4.63,0,0,0-.3,1.78,1.13,1.13,0,0,0,.22.49,5.43,5.43,0,0,1,.58,1.21c.24.76.56,2,.88,3.13s.69,2.57,1,3.4c.1.28.22.63.34,1,.66,2,.91,2.61,1.16,2.82a.54.54,0,0,0,.31.09,3.51,3.51,0,0,0,1.05-.3l.12,0c.17-.06.2-.07,1.45-1.78.4-.54.82-1.11,1.12-1.49l0,0c.52-.88,1-1.58,1.28-2,0,.1,0,.2.07.3.21.84.35,1.41.43,1.6a6.18,6.18,0,0,0,.8,1.11c.13.14.3.15.69.15s1.27,0,1.64,0h.16a.44.44,0,0,0,.41-.29.66.66,0,0,0,0-.7,2.25,2.25,0,0,0-.48-.29,7.58,7.58,0,0,1-.68-.4,6.68,6.68,0,0,1-.43-.65c-.06-.17-.4-1.59-.62-2.53-.16-.7-.31-1.29-.35-1.44s-.27-1-.46-1.7-.32-1.18-.37-1.37-.17-.5-.32-1c-.33-1-.94-2.78-1-3s0-.17,0-.3C94.42,29.93,94.36,29.56,93.94,29.56ZM85.56,73.37a2.28,2.28,0,0,0-1.5,2.82,2.22,2.22,0,0,0,2.66,1.72,2.3,2.3,0,0,0,1.5-2.83A2.22,2.22,0,0,0,85.56,73.37Zm28-9.11a54.93,54.93,0,0,1-2.17,10.94,5.17,5.17,0,0,1-3.94,9.51,54.61,54.61,0,0,1-6.2,9.26A5.17,5.17,0,0,1,94,101.25a54.61,54.61,0,0,1-9.26,6.2,5.17,5.17,0,0,1-9.51,3.94,54.93,54.93,0,0,1-10.94,2.17,5.17,5.17,0,0,1-10.29,0A54.93,54.93,0,0,1,43,111.39a5.17,5.17,0,0,1-9.51-3.94,54.61,54.61,0,0,1-9.26-6.2A5.17,5.17,0,0,1,17,94a55.83,55.83,0,0,1-6.2-9.26A5.17,5.17,0,0,1,6.84,75.2,54.21,54.21,0,0,1,4.68,64.26,5.17,5.17,0,0,1,4.68,54,54.21,54.21,0,0,1,6.84,43a5.17,5.17,0,0,1,3.94-9.51A55.21,55.21,0,0,1,17,24.26,5.17,5.17,0,0,1,24.26,17a55.21,55.21,0,0,1,9.26-6.2A5.17,5.17,0,0,1,43,6.84,54.21,54.21,0,0,1,54,4.68a5.17,5.17,0,0,1,10.29,0A54.21,54.21,0,0,1,75.2,6.84a5.17,5.17,0,0,1,9.51,3.94A55.21,55.21,0,0,1,94,17a5.17,5.17,0,0,1,7.28,7.28,54.61,54.61,0,0,1,6.2,9.26A5.17,5.17,0,0,1,111.39,43,54.93,54.93,0,0,1,113.56,54a5.17,5.17,0,0,1,0,10.29Zm-1.24-5.14a53.21,53.21,0,1,0-53.2,53.2A53.2,53.2,0,0,0,112.32,59.12ZM83.71,25.25l.2.55h.59a2.4,2.4,0,0,0,.61-.16A1.47,1.47,0,0,0,86,24.9a1.26,1.26,0,0,0,.06-1,1.34,1.34,0,0,0-.62-.77,1.13,1.13,0,0,0-.53-.14,1.26,1.26,0,0,0-.49.1,1.68,1.68,0,0,0-.65.43,6.51,6.51,0,0,0-.46.56l.21.6ZM42.13,56.83c0,.68.17,3.65.31,5.11l0,0,.31-.12c.3-.17,5-3.13,5.71-3.62a7,7,0,0,0-.14-1.72,5.5,5.5,0,0,0-1.16-.93c-.56,0-4,.59-4.23.66A7.06,7.06,0,0,0,42.13,56.83Z"/></g></g></svg>